<?xml version="1.0" encoding="utf-8"?>
<!-- Generator: Adobe Illustrator 16.0.0, SVG Export Plug-In . SVG Version: 6.00 Build 0)  -->
<!DOCTYPE svg PUBLIC "-//W3C//DTD SVG 1.1//EN" "http://www.w3.org/Graphics/SVG/1.1/DTD/svg11.dtd">
<svg version="1.1" id="Layer_1" xmlns="http://www.w3.org/2000/svg" xmlns:xlink="http://www.w3.org/1999/xlink" x="0px" y="0px"
	 width="500px" height="59.771px" viewBox="0 0 500 59.771" enable-background="new 0 0 500 59.771" xml:space="preserve">
<rect x="3.248" y="3.235" fill="#249C8B" width="210.183" height="53.621"/>
<g>
	<path fill="#FBB03C" d="M239.833,48.126h24.185v8.143h-35.421V3.235h11.236V48.126z"/>
	<path fill="#FBB03C" d="M284.442,56.269h-11.278V3.235h11.278V56.269z"/>
	<path fill="#FBB03C" d="M292.086,3.235h9.064c0.975,0,1.77,0.208,2.381,0.624c0.613,0.416,1.071,0.954,1.379,1.614l14.201,32.348
		c0.474,1.052,0.926,2.207,1.358,3.466c0.431,1.259,0.842,2.586,1.231,3.979c0.641-2.811,1.434-5.293,2.382-7.445l14.16-32.348
		c0.25-0.562,0.695-1.075,1.336-1.54c0.641-0.464,1.434-0.697,2.381-0.697h9.063L326.63,56.269H316.48L292.086,3.235z"/>
	<path fill="#FBB03C" d="M369.986,56.269h-11.278V3.235h11.278V56.269z"/>
	<path fill="#FBB03C" d="M390.704,3.291c0.335,0.037,0.633,0.11,0.897,0.221c0.264,0.109,0.523,0.269,0.773,0.477
		c0.251,0.208,0.528,0.483,0.835,0.825l31.703,35.465c-0.111-0.856-0.188-1.693-0.229-2.513c-0.043-0.819-0.063-1.583-0.063-2.292
		V3.235h9.899v53.034h-5.807c-0.891,0-1.628-0.123-2.214-0.367c-0.584-0.244-1.154-0.684-1.712-1.32L393.21,19.263
		c0.084,0.783,0.146,1.559,0.188,2.329c0.043,0.77,0.063,1.473,0.063,2.109v32.568h-9.899V3.235h5.89
		C389.952,3.235,390.37,3.254,390.704,3.291z"/>
	<path fill="#FBB03C" d="M473.65,49.007c2.533,0,4.74-0.201,6.62-0.605c1.879-0.404,3.669-0.959,5.367-1.669v-9.646h-7.561
		c-0.725,0-1.295-0.177-1.712-0.532c-0.417-0.354-0.627-0.789-0.627-1.302v-5.575h20.092v21.455
		c-1.532,0.978-3.127,1.828-4.783,2.549c-1.657,0.721-3.426,1.314-5.305,1.778c-1.88,0.465-3.892,0.812-6.036,1.045
		c-2.144,0.231-4.455,0.349-6.934,0.349c-4.399,0-8.452-0.672-12.154-2.018c-3.704-1.344-6.907-3.214-9.608-5.611
		c-2.701-2.396-4.811-5.257-6.328-8.582c-1.519-3.325-2.276-6.956-2.276-10.893c0-3.984,0.738-7.641,2.214-10.966
		c1.476-3.325,3.571-6.186,6.286-8.582c2.715-2.396,6.009-4.255,9.878-5.575c3.871-1.32,8.216-1.981,13.033-1.981
		c4.93,0,9.197,0.642,12.802,1.926c3.606,1.283,6.663,2.952,9.169,5.006l-3.258,4.474c-0.641,0.905-1.489,1.357-2.547,1.357
		c-0.67,0-1.352-0.195-2.047-0.586c-0.893-0.464-1.804-0.929-2.736-1.394c-0.934-0.464-1.964-0.868-3.091-1.21
		c-1.128-0.342-2.396-0.623-3.801-0.844c-1.406-0.22-3.028-0.33-4.867-0.33c-2.979,0-5.674,0.44-8.082,1.32
		c-2.409,0.88-4.463,2.14-6.162,3.777c-1.698,1.638-3.007,3.607-3.926,5.905c-0.919,2.299-1.377,4.866-1.377,7.702
		c0,3.057,0.485,5.777,1.461,8.161c0.975,2.384,2.339,4.395,4.095,6.033c1.753,1.639,3.842,2.892,6.265,3.76
		C468.136,48.573,470.78,49.007,473.65,49.007z"/>
</g>
<g>
	<path fill="#FFFFFF" d="M37.327,24.494c-0.065,0.132-0.169,0.198-0.31,0.198c-0.104,0-0.238-0.059-0.403-0.176
		c-0.164-0.118-0.379-0.25-0.647-0.396c-0.268-0.146-0.597-0.277-0.988-0.395c-0.389-0.117-0.866-0.176-1.43-0.176
		c-0.508,0-0.971,0.072-1.389,0.218s-0.775,0.34-1.071,0.584c-0.296,0.243-0.526,0.526-0.691,0.85
		c-0.165,0.323-0.247,0.663-0.247,1.019c0,0.441,0.113,0.807,0.338,1.097c0.226,0.291,0.521,0.539,0.888,0.745
		s0.782,0.384,1.247,0.534c0.466,0.15,0.942,0.3,1.431,0.451c0.489,0.151,0.966,0.319,1.431,0.501
		c0.465,0.184,0.881,0.411,1.248,0.684c0.366,0.272,0.663,0.606,0.889,1c0.225,0.396,0.338,0.875,0.338,1.438
		c0,0.61-0.111,1.178-0.332,1.705c-0.22,0.526-0.54,0.982-0.958,1.368c-0.418,0.384-0.933,0.69-1.543,0.916
		c-0.611,0.225-1.307,0.338-2.086,0.338c-0.986,0-1.837-0.158-2.551-0.472c-0.714-0.315-1.354-0.726-1.917-1.234l0.324-0.479
		c0.047-0.074,0.099-0.131,0.154-0.168c0.057-0.038,0.136-0.057,0.24-0.057c0.123,0,0.273,0.075,0.451,0.225
		c0.179,0.152,0.411,0.313,0.698,0.487c0.287,0.173,0.644,0.336,1.071,0.486c0.429,0.15,0.957,0.225,1.586,0.225
		c0.592,0,1.114-0.081,1.565-0.247c0.45-0.164,0.827-0.387,1.127-0.669c0.3-0.283,0.528-0.613,0.683-0.993
		c0.156-0.381,0.233-0.783,0.233-1.206c0-0.47-0.113-0.86-0.338-1.17c-0.226-0.31-0.521-0.573-0.889-0.789
		c-0.367-0.215-0.783-0.399-1.248-0.549c-0.465-0.151-0.944-0.301-1.438-0.452s-0.973-0.315-1.438-0.493s-0.881-0.404-1.247-0.678
		c-0.367-0.272-0.663-0.604-0.889-0.993c-0.225-0.39-0.339-0.877-0.339-1.459c0-0.498,0.109-0.977,0.324-1.437
		c0.217-0.461,0.524-0.865,0.924-1.212c0.399-0.348,0.886-0.625,1.459-0.832c0.574-0.207,1.217-0.31,1.931-0.31
		c0.855,0,1.614,0.124,2.276,0.371c0.663,0.248,1.271,0.626,1.826,1.137L37.327,24.494z"/>
	<path fill="#FFFFFF" d="M47.011,22.521c0.789,0,1.52,0.136,2.191,0.408c0.672,0.273,1.254,0.67,1.748,1.191
		c0.493,0.522,0.879,1.163,1.157,1.924c0.276,0.761,0.415,1.635,0.415,2.622c0,0.207-0.03,0.348-0.092,0.423
		c-0.061,0.076-0.156,0.113-0.287,0.113H42.021v0.268c0,1.053,0.122,1.979,0.367,2.778c0.244,0.799,0.591,1.468,1.042,2.008
		s0.996,0.947,1.635,1.219s1.353,0.409,2.143,0.409c0.704,0,1.315-0.077,1.833-0.232c0.517-0.155,0.951-0.33,1.304-0.521
		c0.353-0.193,0.632-0.366,0.838-0.522c0.207-0.155,0.356-0.233,0.452-0.233c0.122,0,0.216,0.047,0.282,0.141l0.367,0.452
		c-0.226,0.282-0.524,0.546-0.895,0.79c-0.372,0.245-0.785,0.453-1.24,0.627c-0.456,0.174-0.945,0.312-1.467,0.416
		c-0.521,0.103-1.045,0.155-1.572,0.155c-0.958,0-1.832-0.168-2.621-0.501c-0.79-0.333-1.467-0.819-2.032-1.458
		c-0.565-0.639-1.002-1.421-1.311-2.346c-0.31-0.926-0.463-1.985-0.463-3.18c0-1.005,0.143-1.933,0.43-2.784
		c0.287-0.851,0.7-1.583,1.241-2.199c0.54-0.615,1.203-1.097,1.987-1.445C45.124,22.695,46.015,22.521,47.011,22.521z
		 M47.032,23.521c-0.723,0-1.371,0.113-1.943,0.339c-0.572,0.225-1.067,0.55-1.484,0.973c-0.418,0.423-0.755,0.93-1.013,1.522
		c-0.259,0.592-0.429,1.254-0.514,1.988h9.232c0-0.752-0.104-1.426-0.31-2.023c-0.206-0.597-0.498-1.102-0.872-1.515
		c-0.375-0.413-0.826-0.731-1.352-0.951C48.251,23.633,47.669,23.521,47.032,23.521z"/>
	<path fill="#FFFFFF" d="M56.13,36.772V22.747h0.733c0.245,0,0.386,0.117,0.424,0.352l0.126,2.03
		c0.272-0.386,0.564-0.737,0.874-1.058c0.31-0.319,0.641-0.594,0.994-0.824c0.352-0.23,0.728-0.409,1.128-0.536
		c0.399-0.127,0.819-0.19,1.261-0.19c1.024,0,1.843,0.298,2.454,0.895c0.61,0.597,1.024,1.426,1.24,2.489
		c0.169-0.583,0.406-1.086,0.711-1.509c0.305-0.423,0.654-0.773,1.048-1.05c0.394-0.277,0.824-0.483,1.288-0.62
		c0.464-0.136,0.94-0.204,1.428-0.204c0.694,0,1.318,0.114,1.872,0.345c0.553,0.23,1.024,0.571,1.414,1.022
		c0.389,0.45,0.687,1.005,0.894,1.663c0.206,0.657,0.309,1.41,0.309,2.255v8.965h-1.338v-8.965c0-1.372-0.297-2.418-0.888-3.137
		c-0.593-0.719-1.438-1.078-2.538-1.078c-0.488,0-0.956,0.09-1.402,0.268s-0.841,0.443-1.184,0.796
		c-0.343,0.353-0.615,0.791-0.817,1.317c-0.202,0.526-0.303,1.137-0.303,1.833v8.965h-1.339v-8.965c0-1.362-0.272-2.405-0.817-3.13
		c-0.544-0.723-1.339-1.085-2.382-1.085c-0.761,0-1.467,0.228-2.115,0.684c-0.648,0.455-1.226,1.087-1.734,1.896v10.6H56.13z"/>
	<path fill="#FFFFFF" d="M87.507,36.772c-0.282,0-0.456-0.132-0.521-0.395l-0.198-1.79c-0.385,0.377-0.768,0.714-1.149,1.015
		c-0.38,0.302-0.778,0.555-1.191,0.762s-0.859,0.364-1.339,0.472c-0.479,0.108-1.006,0.163-1.579,0.163
		c-0.479,0-0.944-0.071-1.395-0.211c-0.452-0.14-0.851-0.356-1.198-0.648c-0.348-0.291-0.627-0.665-0.839-1.12
		c-0.211-0.456-0.317-1.003-0.317-1.642c0-0.592,0.168-1.141,0.507-1.65c0.338-0.507,0.866-0.949,1.586-1.325
		c0.718-0.375,1.644-0.677,2.776-0.901c1.132-0.226,2.493-0.357,4.081-0.396v-1.466c0-1.296-0.28-2.295-0.839-2.995
		c-0.56-0.7-1.389-1.05-2.488-1.05c-0.677,0-1.252,0.094-1.727,0.282c-0.475,0.188-0.877,0.396-1.206,0.62
		c-0.328,0.226-0.596,0.433-0.803,0.621c-0.207,0.188-0.381,0.282-0.521,0.282c-0.188,0-0.329-0.084-0.424-0.254l-0.24-0.409
		c0.734-0.733,1.504-1.287,2.313-1.663c0.808-0.376,1.724-0.564,2.749-0.564c0.751,0,1.409,0.12,1.973,0.359
		c0.563,0.239,1.031,0.583,1.402,1.029s0.65,0.987,0.839,1.621c0.188,0.635,0.282,1.342,0.282,2.122v9.134H87.507z M81.868,36.025
		c0.545,0,1.046-0.059,1.501-0.177c0.456-0.117,0.878-0.281,1.269-0.493c0.39-0.212,0.754-0.462,1.092-0.754
		c0.339-0.292,0.672-0.606,1.001-0.945v-3.65c-1.334,0.038-2.484,0.139-3.447,0.303c-0.963,0.164-1.758,0.387-2.382,0.669
		c-0.625,0.283-1.085,0.617-1.381,1.007c-0.295,0.391-0.443,0.834-0.443,1.333c0,0.47,0.076,0.876,0.232,1.219
		c0.156,0.343,0.36,0.625,0.613,0.846c0.254,0.221,0.549,0.383,0.888,0.486C81.149,35.974,81.502,36.025,81.868,36.025z"/>
	<path fill="#FFFFFF" d="M92.271,36.772V22.747h0.733c0.244,0,0.385,0.117,0.423,0.352l0.125,2.114
		c0.64-0.807,1.384-1.458,2.235-1.952c0.85-0.493,1.797-0.74,2.84-0.74c0.77,0,1.45,0.122,2.037,0.366
		c0.587,0.244,1.074,0.597,1.459,1.057c0.385,0.461,0.676,1.015,0.874,1.663c0.197,0.648,0.296,1.381,0.296,2.199v8.965h-1.339
		v-8.965c0-1.316-0.3-2.348-0.902-3.094s-1.522-1.121-2.763-1.121c-0.921,0-1.776,0.238-2.565,0.711
		c-0.79,0.476-1.494,1.125-2.115,1.952v10.516H92.271z"/>
	<path fill="#FFFFFF" d="M116.472,36.772c-0.282,0-0.456-0.132-0.521-0.395l-0.197-1.79c-0.386,0.377-0.769,0.714-1.149,1.015
		c-0.38,0.302-0.777,0.555-1.191,0.762s-0.86,0.364-1.339,0.472c-0.479,0.108-1.005,0.163-1.578,0.163
		c-0.479,0-0.945-0.071-1.396-0.211c-0.451-0.14-0.851-0.356-1.198-0.648c-0.348-0.291-0.628-0.665-0.839-1.12
		c-0.21-0.456-0.316-1.003-0.316-1.642c0-0.592,0.169-1.141,0.507-1.65c0.338-0.507,0.867-0.949,1.586-1.325
		c0.719-0.375,1.645-0.677,2.777-0.901c1.132-0.226,2.492-0.357,4.081-0.396v-1.466c0-1.296-0.28-2.295-0.839-2.995
		c-0.559-0.7-1.388-1.05-2.487-1.05c-0.677,0-1.253,0.094-1.727,0.282c-0.475,0.188-0.876,0.396-1.205,0.62
		c-0.33,0.226-0.597,0.433-0.804,0.621c-0.207,0.188-0.38,0.282-0.521,0.282c-0.188,0-0.33-0.084-0.423-0.254l-0.24-0.409
		c0.733-0.733,1.503-1.287,2.312-1.663c0.808-0.376,1.724-0.564,2.748-0.564c0.751,0,1.41,0.12,1.974,0.359
		c0.564,0.239,1.031,0.583,1.402,1.029s0.651,0.987,0.839,1.621c0.188,0.635,0.282,1.342,0.282,2.122v9.134H116.472z
		 M110.834,36.025c0.544,0,1.044-0.059,1.5-0.177c0.456-0.117,0.879-0.281,1.269-0.493c0.39-0.212,0.754-0.462,1.092-0.754
		s0.671-0.606,1.001-0.945v-3.65c-1.334,0.038-2.483,0.139-3.447,0.303c-0.963,0.164-1.758,0.387-2.382,0.669
		c-0.625,0.283-1.085,0.617-1.381,1.007c-0.296,0.391-0.444,0.834-0.444,1.333c0,0.47,0.077,0.876,0.233,1.219
		c0.155,0.343,0.358,0.625,0.612,0.846c0.254,0.221,0.55,0.383,0.888,0.486C110.115,35.974,110.467,36.025,110.834,36.025z"/>
</g>
<g>
	<path fill="#FFFFFF" d="M179.496,33.316L179.496,33.316L138.79,33.26c-0.804,0.009-1.489-0.582-1.597-1.38l-0.847-7.589
		c-0.083-0.588-0.589-1.021-1.181-1.016h-1.062v-5.332c0.022-1.196,1.008-2.149,2.204-2.131l45.647,0.064
		c0.577-0.004,1.134,0.219,1.548,0.622c0.417,0.394,0.656,0.942,0.654,1.517v5.331h-1.062c-0.592-0.013-1.101,0.419-1.181,1.006
		l-0.869,7.583C180.938,32.715,180.281,33.301,179.496,33.316 M135.198,22.278c1.101-0.009,2.033,0.807,2.171,1.898l0.845,7.592
		c0.045,0.293,0.303,0.505,0.599,0.495l40.708,0.056c0.297,0.017,0.557-0.2,0.598-0.494l0.862-7.592
		c0.145-1.089,1.08-1.897,2.178-1.884h0.063v-4.358c0.002-0.301-0.123-0.59-0.342-0.798c-0.233-0.222-0.542-0.346-0.862-0.344
		l-45.648-0.063c-0.645-0.018-1.183,0.488-1.205,1.133v4.333L135.198,22.278z"/>
	<path fill="#FFFFFF" d="M183.551,38.832L183.551,38.832l-48.8-0.072c-1.612,0.037-2.989-1.149-3.193-2.747l-1.332-11.398
		c-0.057-0.58,0.131-1.158,0.518-1.596c0.424-0.469,1.028-0.735,1.661-0.734h2.778c1.1-0.009,2.033,0.808,2.171,1.899l0.845,7.592
		c0.044,0.292,0.303,0.505,0.6,0.495l40.706,0.055c0.297,0.016,0.557-0.2,0.598-0.495l0.863-7.591
		c0.146-1.089,1.081-1.897,2.179-1.884h2.777c0.635-0.001,1.24,0.269,1.662,0.744c0.387,0.435,0.573,1.015,0.511,1.596
		l-1.358,11.396C186.507,37.674,185.148,38.844,183.551,38.832 M132.419,23.251c-0.349-0.001-0.681,0.143-0.917,0.399
		c-0.204,0.232-0.303,0.539-0.271,0.847l1.333,11.406c0.151,1.085,1.09,1.886,2.187,1.86l48.791,0.071
		c1.094,0.022,2.035-0.776,2.188-1.86l1.357-11.398c0.04-0.308-0.059-0.617-0.271-0.845c-0.231-0.261-0.562-0.409-0.909-0.408
		h-2.777c-0.594-0.014-1.102,0.419-1.184,1.006l-0.869,7.583c-0.109,0.795-0.792,1.387-1.597,1.379l-40.706-0.056
		c-0.804,0.008-1.487-0.583-1.597-1.379l-0.846-7.591c-0.083-0.587-0.589-1.02-1.182-1.015H132.419z"/>
	<path fill="#FFFFFF" d="M157.65,32.703L157.65,32.703h-18.254c-0.99,0-1.709-0.471-1.709-1.117v-1.46
		c0.02-0.39,0.262-0.732,0.623-0.879c0.337-0.161,0.706-0.239,1.078-0.231h18.254c0.521-0.024,1.032,0.15,1.429,0.486
		c0.174,0.164,0.272,0.393,0.271,0.631v1.477c-0.022,0.39-0.268,0.733-0.63,0.877C158.378,32.639,158.016,32.713,157.65,32.703
		 M138.678,31.505c0.216,0.124,0.461,0.185,0.71,0.175h18.254c0.248,0.014,0.492-0.047,0.702-0.175v-1.357
		c-0.209-0.13-0.455-0.191-0.702-0.176h-18.262c-0.247-0.015-0.492,0.046-0.702,0.176V31.505z"/>
	<path fill="#FFFFFF" d="M178.921,32.733L178.921,32.733h-18.262c-0.982,0-1.701-0.47-1.701-1.116v-1.493
		c0-0.639,0.719-1.101,1.709-1.101h18.254c0.519-0.026,1.029,0.145,1.428,0.478c0.175,0.164,0.275,0.392,0.28,0.631v1.485
		c-0.004,0.24-0.104,0.467-0.28,0.631C179.95,32.583,179.442,32.755,178.921,32.733 M159.957,31.537
		c0.215,0.125,0.461,0.186,0.711,0.175h18.254c0.248,0.017,0.497-0.045,0.71-0.175V30.18c-0.213-0.13-0.463-0.19-0.71-0.176h-18.254
		c-0.248-0.011-0.495,0.046-0.711,0.168V31.537z"/>
	<path fill="#FFFFFF" d="M182.489,43.692h-1.843l-1.668-4.125l-39.653-0.057l-1.676,4.119h-1.852l0.536-4.127h-0.886V37.73
		l47.388,0.072v1.765h-0.887L182.489,43.692z M181.324,42.695L181.324,42.695l-0.431-3.871h-1.117L181.324,42.695z M136.938,42.631
		h0.055l1.596-3.896h-1.125L136.938,42.631z"/>
</g>
</svg>
